<svg xmlns="http://www.w3.org/2000/svg" width="579" height="422" fill="none">
  <path fill="#4a4a4a" fill-rule="evenodd" d="m85.426 43-43-43L0 42.426l43 43L.426 128l42.427 42.426 42.573-42.573 42.56 42.56 42.427-42.427-42.56-42.56 42.986-42.986L128.413.014 85.426 43Zm407.147 0-43-43-42.427 42.426 43 43L407.573 128l42.426 42.426 42.574-42.573 42.56 42.56 42.426-42.427-42.56-42.56 42.987-42.986L535.559.014 492.573 43Zm86.001 177.844h-572v60h572v-60ZM187.258 409.52c-5.383 0-10.386-.855-15.01-2.565-4.56-1.71-8.518-4.116-11.875-7.22a34.518 34.518 0 0 1-7.885-11.115c-1.836-4.243-2.755-8.866-2.755-13.87 0-5.066.919-9.69 2.755-13.87 1.9-4.243 4.529-7.916 7.885-11.02 3.357-3.166 7.315-5.605 11.875-7.315 4.624-1.71 9.627-2.565 15.01-2.565 5.447 0 10.45.855 15.01 2.565 4.56 1.71 8.519 4.149 11.875 7.315 3.357 3.104 5.954 6.777 7.79 11.02 1.9 4.18 2.85 8.804 2.85 13.87 0 5.004-.95 9.627-2.85 13.87a33.29 33.29 0 0 1-7.79 11.115c-3.356 3.104-7.315 5.51-11.875 7.22s-9.563 2.565-15.01 2.565Zm0-18.145c2.09 0 4.022-.38 5.795-1.14 1.837-.76 3.42-1.836 4.75-3.23 1.394-1.456 2.47-3.198 3.23-5.225.76-2.09 1.14-4.433 1.14-7.03 0-2.596-.38-4.908-1.14-6.935-.76-2.09-1.836-3.831-3.23-5.225a13.178 13.178 0 0 0-4.75-3.325c-1.773-.76-3.705-1.14-5.795-1.14s-4.053.38-5.89 1.14c-1.773.76-3.356 1.869-4.75 3.325-1.33 1.394-2.375 3.135-3.135 5.225-.76 2.027-1.14 4.339-1.14 6.935 0 2.597.38 4.94 1.14 7.03.76 2.027 1.805 3.769 3.135 5.225a15.053 15.053 0 0 0 4.75 3.23c1.837.76 3.8 1.14 5.89 1.14Zm-112.533-.76h8.74v30.4h-20.52V408h-37.81v13.015H4.615v-30.4h1.9c2.09 0 3.8-.696 5.13-2.09 1.393-1.456 2.502-3.451 3.325-5.985.823-2.596 1.425-5.636 1.805-9.12.443-3.546.76-7.441.95-11.685l.76-20.235h56.24v49.115Zm-22.04 0v-31.73H37.39l-.19 4.75a145.844 145.844 0 0 1-.665 9.785c-.317 3.04-.76 5.827-1.33 8.36-.507 2.534-1.172 4.782-1.995 6.745a18.883 18.883 0 0 1-1.057 2.09h20.532Zm34.51-49.115V408h22.419v-16.34h9.595c6.207 0 11.559-1.013 16.055-3.04 4.56-2.09 8.075-5.003 10.545-8.74 2.47-3.736 3.705-8.17 3.705-13.3 0-5.13-1.235-9.563-3.705-13.3-2.47-3.8-5.985-6.713-10.545-8.74-4.496-2.026-9.848-3.04-16.055-3.04H87.194Zm22.419 32.87h8.17c3.104 0 5.384-.696 6.84-2.09 1.52-1.393 2.28-3.293 2.28-5.7 0-2.406-.76-4.306-2.28-5.7-1.456-1.393-3.736-2.09-6.84-2.09h-8.17v15.58Zm184.988-32.87h-22.42v23.56h-20.71V341.5h-22.42V408h22.42v-24.51h20.71V408h22.42v-66.5Zm2.418 66.5 29.07-66.5h22.04L377.2 408h-23.18l-4.454-11.59h-25.291L319.82 408h-22.8Zm39.9-44.49 6.438 16.75h-12.876l6.438-16.75Zm42.618-22.01V408h22.42v-16.34h9.595c6.207 0 11.559-1.013 16.055-3.04 4.56-2.09 8.075-5.003 10.545-8.74 2.47-3.736 3.705-8.17 3.705-13.3 0-5.13-1.235-9.563-3.705-13.3-2.47-3.8-5.985-6.713-10.545-8.74-4.496-2.026-9.848-3.04-16.055-3.04h-32.015Zm22.42 32.87h8.17c3.104 0 5.384-.696 6.84-2.09 1.52-1.393 2.28-3.293 2.28-5.7 0-2.406-.76-4.306-2.28-5.7-1.456-1.393-3.736-2.09-6.84-2.09h-8.17v15.58Zm86.027-32.87h22.42V408h-22.42v-24.51h-20.71V408h-22.42v-66.5h22.42v23.56h20.71V341.5Zm66.733 50.73V408h22.04v-66.5h-31.16c-6.27 0-11.717 1.045-16.34 3.135-4.624 2.09-8.202 5.067-10.735 8.93-2.47 3.8-3.705 8.36-3.705 13.68 0 5.194 1.203 9.659 3.61 13.395 2.314 3.594 5.566 6.397 9.755 8.409L515.103 408h23.465l10.142-15.77h6.008Zm0-16.91v-16.53h-8.74c-2.85 0-5.004.665-6.46 1.995-1.394 1.33-2.09 3.357-2.09 6.08 0 2.787.728 4.909 2.185 6.365 1.456 1.394 3.578 2.09 6.365 2.09h8.74ZM331.986.014 289 43 246 0l-42.427 42.426 43 43L204 128l42.426 42.426L289 127.853l42.56 42.56 42.426-42.427-42.56-42.56 42.986-42.986L331.986.014Z" clip-rule="evenodd"/>
</svg>
