<svg xmlns="http://www.w3.org/2000/svg" width="579" height="404" fill="none">
  <path fill="#fff" fill-rule="evenodd" d="m85.426 43-43-43L0 42.426l43 43L.426 128l42.427 42.426 42.573-42.573 42.56 42.56 42.427-42.427-42.56-42.56 42.986-42.986L128.413.014 85.426 43Zm407.147 0-43-43-42.427 42.426 43 43L407.573 128l42.426 42.426 42.574-42.573 42.56 42.56 42.426-42.427-42.56-42.56 42.987-42.986L535.559.014 492.573 43Zm86.001 177.844h-572v60h572v-60ZM159.399 401.02c4.331 1.602 9.018 2.403 14.062 2.403 5.102 0 9.79-.801 14.062-2.403 4.272-1.602 7.98-3.856 11.125-6.764a31.214 31.214 0 0 0 7.298-10.413c1.78-3.975 2.67-8.306 2.67-12.994 0-4.746-.89-9.078-2.67-12.994-1.721-3.975-4.154-7.416-7.298-10.324-3.145-2.966-6.853-5.251-11.125-6.853-4.272-1.602-8.96-2.403-14.062-2.403-5.044 0-9.731.801-14.062 2.403-4.272 1.602-7.981 3.887-11.125 6.853-3.145 2.908-5.607 6.349-7.387 10.324-1.721 3.916-2.581 8.248-2.581 12.994 0 4.688.86 9.019 2.581 12.994a32.322 32.322 0 0 0 7.387 10.413c3.144 2.908 6.853 5.162 11.125 6.764Zm19.491-15.664c-1.662.712-3.471 1.068-5.429 1.068-1.958 0-3.798-.356-5.518-1.068a14.08 14.08 0 0 1-4.45-3.026c-1.246-1.364-2.225-2.996-2.937-4.895-.712-1.958-1.068-4.153-1.068-6.586 0-2.432.356-4.598 1.068-6.497.712-1.958 1.691-3.589 2.937-4.895 1.305-1.364 2.788-2.403 4.45-3.115 1.72-.712 3.56-1.068 5.518-1.068 1.958 0 3.767.356 5.429 1.068a12.354 12.354 0 0 1 4.45 3.115c1.305 1.306 2.314 2.937 3.026 4.895.712 1.899 1.068 4.065 1.068 6.497 0 2.433-.356 4.628-1.068 6.586-.712 1.899-1.721 3.531-3.026 4.895a12.88 12.88 0 0 1-4.45 3.026ZM8.073 401.999v-62.3h30.705c6.942 0 13.053 1.276 18.334 3.827 5.28 2.492 9.404 6.052 12.37 10.68 2.968 4.628 4.45 10.146 4.45 16.554 0 6.468-1.482 12.045-4.45 16.732-2.966 4.628-7.09 8.218-12.37 10.769-5.28 2.492-11.392 3.738-18.334 3.738H8.073Zm21.004-16.376h8.81c2.968 0 5.549-.563 7.744-1.691a12.163 12.163 0 0 0 5.25-4.984c1.247-2.254 1.87-4.984 1.87-8.188 0-3.144-.623-5.814-1.87-8.01a12.174 12.174 0 0 0-5.25-4.984c-2.195-1.127-4.776-1.691-7.743-1.691h-8.811v29.548Zm48.965 16.376v-62.3h29.993c5.815 0 10.829.95 15.041 2.848 4.272 1.899 7.565 4.628 9.879 8.188 2.314 3.501 3.471 7.654 3.471 12.46 0 4.806-1.157 8.96-3.471 12.46-2.016 2.999-4.775 5.389-8.277 7.171l13.083 19.173h-22.428l-10.565-15.664h-5.722v15.664H78.042Zm28.658-31.506h-7.654v-14.596h7.654c2.908 0 5.044.653 6.408 1.958 1.424 1.306 2.136 3.086 2.136 5.34 0 2.255-.712 4.035-2.136 5.34-1.364 1.306-3.5 1.958-6.408 1.958Zm105.979-30.794h17.266l23.674 28.329v-28.329h20.47v61.834l27.03-61.834h20.648l27.026 61.825v-61.825h29.993c5.815 0 10.829.95 15.041 2.848 4.272 1.899 7.565 4.628 9.879 8.188 2.314 3.501 3.471 7.654 3.471 12.46 0 4.806-1.157 8.96-3.471 12.46-2.016 2.999-4.775 5.389-8.277 7.171l13.083 19.173h-22.428l-10.565-15.664h-5.722v15.664h-42.512l-4.173-10.858h-23.693l-4.174 10.858h-38.422l-23.674-28.329v28.329h-20.47v-62.3Zm164.772 30.794h-7.654v-14.596h7.654c2.908 0 5.044.653 6.408 1.958 1.424 1.306 2.136 3.086 2.136 5.34 0 2.255-.712 4.035-2.136 5.34-1.364 1.306-3.5 1.958-6.408 1.958Zm-72.217 5.518h12.063l-6.032-15.692-6.031 15.692Zm123.581-36.312h-17.266v62.3h20.47V373.67l23.674 28.329h17.266v-62.3h-20.47v28.329l-23.674-28.329Zm50.704 0h21.004v61.814l27.021-61.814h20.648l27.234 62.3H553.71l-4.173-10.858h-23.693l-4.174 10.858H479.519v-62.3Zm64.203 36.312-6.032-15.692-6.031 15.692h12.063ZM331.986.014 289 43 246 0l-42.427 42.426 43 43L204 128l42.426 42.426L289 127.853l42.56 42.56 42.426-42.427-42.56-42.56 42.986-42.986L331.986.014Z" clip-rule="evenodd"/>
</svg>
