<svg viewBox="0 0 165 200" xmlns="http://www.w3.org/2000/svg"><g fill="none"><path d="m98.786 42.79 7.52-7.52-7.501-7.506a.096.096 0 0 1 -.019-.006zm-33.006.012-7.522-7.522 7.503-7.504.019-.006z" fill="#f14624"/><path d="m102.951 170.243 10.332-14.816h-62.051l10.352 14.816zm-31.015 14.814 10.352 14.816 10.333-14.816zm10.353-77.253-8.56-7.567 8.559-7.249 8.554 7.256zm-10.177-51.762 10.177 10.202s4.413-4.43 10.177-10.21v13.142l-10.176 8.995-10.177-8.995v-13.134zm10.154-18.079.023.024.035-.035 10.656 10.658-10.692 10.693-10.68-10.683zm8.97-15.867-8.947 8.947-8.947-8.947zm73.069-1.6v-14.816l-66.98 59.202v-13.72l15.853-15.879-.001-.003-10.95-10.968-3.44 3.446 7.522 7.522-9.894 9.895-10.662-10.665c7.52-7.541 15.044-15.083 22.566-22.624v13.104h4.858v-24.909l-17.084 17.159h-27.608l-17.085-17.16v24.91h4.858v-13.09l22.574 22.625-10.658 10.66-9.906-9.906 7.512-7.51-3.444-3.452-10.936 10.962v.003l15.853 15.89v13.71l-66.98-59.2v14.814l73.61 65.063-8.405 7.386-65.205-57.631v14.808l56.8 50.21-45.827 40.28h14.818l39.106-33.125 8.28 7.32-32.569 25.804h82.732l-32.493-25.796 8.274-7.316 39.035 33.112h14.834l-45.773-40.267 56.813-50.222v-14.808l-65.212 57.64-8.4-7.391z" fill="#1d1e1d"/></g></svg>