<svg xmlns="http://www.w3.org/2000/svg" width="578" height="401" fill="none">
  <path fill="#fff" fill-rule="evenodd" d="m85.426 43-43-43L0 42.426l43 43L.426 128l42.427 42.426 42.573-42.573 42.56 42.56 42.427-42.427-42.56-42.56 42.986-42.986L128.413.014 85.426 43Zm407.147 0-43-43-42.427 42.426 43 43L407.573 128l42.426 42.426 42.574-42.573 42.56 42.56 42.426-42.427-42.56-42.56 42.987-42.986L535.559.014 492.573 43Zm84.001 177.844h-574v60h574v-60Zm-.001 120h-574v60h574v-60ZM331.986.014 289 43 246 0l-42.427 42.426 43 43L204 128l42.426 42.426L289 127.853l42.56 42.56 42.426-42.427-42.56-42.56 42.986-42.986L331.986.014Z" clip-rule="evenodd"/>
</svg>
