<svg xmlns="http://www.w3.org/2000/svg" viewBox="0 0 160 173">
  <g fill="none" fill-rule="evenodd">
    <path fill="#DF542F" d="m93 44 6-5.504-5.985-5.491L93 33v11Zm-24 0-6-5.504 5.985-5.491L69 33v11Z"/>
    <path fill="#191C19" d="M96.174 139 104 128H57l7.841 11zM73 151l8.008 11L89 151zm7.5-58.512-6.419-5.654 6.418-5.416 6.415 5.421-6.414 5.649Zm-7.632-38.675 7.632 7.623 7.632-7.63v9.82l-7.632 6.72-7.632-6.72v-9.813Zm7.615-13.508a.374.374 0 0 0 .017.018l.026-.026 7.991 7.963-8.017 7.988-8.008-7.98 7.991-7.963Zm6.726-11.855L80.5 35.134l-6.709-6.684H87.21ZM142 27.254v-11.07L91.775 60.417v-10.25l11.887-11.866v-.002l-8.212-8.194-2.58 2.575 5.641 5.62-7.418 7.393-7.996-7.968 16.922-16.903v9.79h3.642V12l-12.81 12.82H70.149L57.338 12v18.612h3.643v-9.78l16.928 16.904-7.993 7.965-7.427-7.4 5.631-5.612s-1.723-1.72-2.582-2.58l-8.2 8.19v.002l11.887 11.873v10.243L19 16.184v11.07l55.197 48.613-6.303 5.519L19 38.326v11.063l42.593 37.516L27.228 117H38.34l29.325-24.75 6.208 5.47L49.45 117h62.037L87.122 97.726l6.204-5.466 29.27 24.74h11.125L99.397 86.913 142 49.389V38.325L93.1 81.392l-6.3-5.522L142 27.254Z"/>
  </g>
</svg>
